<svg xmlns="http://www.w3.org/2000/svg" viewBox="0 0 512 512">
  <rect width="512" height="512" rx="108" fill="#F8F5F0"/>
  <circle cx="256" cy="240" r="160" fill="none" stroke="#E2DCD2" stroke-width="2"/>
  <circle cx="256" cy="240" r="120" fill="none" stroke="#E2DCD2" stroke-width="1.5"/>
  <circle cx="256" cy="240" r="80" fill="none" stroke="#E2DCD2" stroke-width="1"/>
  <!-- Lotus petals -->
  <g transform="translate(256,240)">
    <ellipse cx="0" cy="-50" rx="22" ry="52" fill="#C84B31" opacity="0.9" transform="rotate(0)"/>
    <ellipse cx="0" cy="-50" rx="22" ry="52" fill="#C84B31" opacity="0.75" transform="rotate(45)"/>
    <ellipse cx="0" cy="-50" rx="22" ry="52" fill="#C84B31" opacity="0.9" transform="rotate(90)"/>
    <ellipse cx="0" cy="-50" rx="22" ry="52" fill="#C84B31" opacity="0.75" transform="rotate(135)"/>
    <ellipse cx="0" cy="-50" rx="22" ry="52" fill="#C84B31" opacity="0.9" transform="rotate(180)"/>
    <ellipse cx="0" cy="-50" rx="22" ry="52" fill="#C84B31" opacity="0.75" transform="rotate(225)"/>
    <ellipse cx="0" cy="-50" rx="22" ry="52" fill="#C84B31" opacity="0.9" transform="rotate(270)"/>
    <ellipse cx="0" cy="-50" rx="22" ry="52" fill="#C84B31" opacity="0.75" transform="rotate(315)"/>
    <circle cx="0" cy="0" r="24" fill="#B8860B"/>
    <circle cx="0" cy="0" r="12" fill="#F8F5F0"/>
  </g>
  <!-- Text -->
  <text x="256" y="430" text-anchor="middle" font-family="Georgia,serif" font-size="48" font-weight="600" fill="#2C2418" letter-spacing="4">MAHĀBHĀRATA</text>
  <text x="256" y="468" text-anchor="middle" font-family="sans-serif" font-size="20" fill="#9E8F7F" letter-spacing="6">THE LIVING EPIC</text>
</svg>
